<?xml version="1.0" encoding="UTF-8"?>
<svg version="1.1" xmlns="http://www.w3.org/2000/svg" width="1200" height="1200">
<path d="M0 0 C1.5215779 -0.00239533 3.04315462 -0.00566402 4.56472901 -0.0097166 C8.72433302 -0.01828509 12.88384606 -0.01453173 17.04345133 -0.00866088 C21.57712535 -0.00447319 26.11078329 -0.01190234 30.64445335 -0.01781338 C38.58337558 -0.02656185 46.522272 -0.02789231 54.46119785 -0.02431011 C66.26702827 -0.01899718 78.07283376 -0.02510438 89.87866146 -0.03339304 C112.19209405 -0.04862842 134.50551529 -0.05033857 156.81895199 -0.04787002 C174.05100955 -0.04603685 191.2830634 -0.04779746 208.51512051 -0.05209446 C210.99147148 -0.05269686 213.46782245 -0.05329806 215.94417343 -0.05389806 C219.67587886 -0.05480532 223.40758429 -0.05571399 227.13928971 -0.05663041 C261.83252215 -0.06505934 296.52575319 -0.06939607 331.21898651 -0.06522369 C333.18055274 -0.06498913 333.18055274 -0.06498913 335.18174656 -0.06474983 C341.80962636 -0.06394405 348.43750616 -0.06309828 355.06538596 -0.06223653 C357.03983452 -0.06197989 357.03983452 -0.06197989 359.05417092 -0.06171808 C361.71604713 -0.06137142 364.37792335 -0.06102289 367.03979956 -0.06067249 C408.45623084 -0.0553156 449.87263987 -0.06324506 491.28906727 -0.08170605 C537.83002028 -0.10242698 584.3709601 -0.11314856 630.91191798 -0.10913056 C635.87548752 -0.10873522 640.83905707 -0.10837367 645.80262661 -0.10803318 C647.02476589 -0.10794245 648.24690518 -0.10785172 649.50607898 -0.10775824 C667.94701418 -0.10659278 686.38793605 -0.11323667 704.82886791 -0.1238451 C725.8047571 -0.13589956 746.78061695 -0.13745322 767.75650658 -0.12505493 C779.4902984 -0.11842959 791.22402004 -0.12004993 802.95780623 -0.13364345 C810.80297923 -0.14189773 818.64809976 -0.13917765 826.49326851 -0.12766818 C830.95828077 -0.12142151 835.42315627 -0.11978567 839.88816055 -0.13153151 C860.956377 -0.18321941 881.07119291 0.22908701 901.43091297 6.37947559 C902.43323963 6.67877979 903.43556629 6.97808399 904.46826649 7.28645802 C931.81275972 15.7555321 954.92238882 30.61721183 975.49341297 50.25447559 C976.79085438 51.47263966 976.79085438 51.47263966 978.11450672 52.71541309 C1006.5383374 80.11935594 1025.68920109 121.51709828 1027.67873058 160.92520048 C1027.7491674 164.8712417 1027.76095537 168.81466807 1027.74788857 172.76106262 C1027.75028389 174.28264052 1027.75355258 175.80421724 1027.75760517 177.32579163 C1027.76617366 181.48539564 1027.76242029 185.64490868 1027.75654944 189.80451395 C1027.75236176 194.33818797 1027.75979091 198.87184592 1027.76570195 203.40551597 C1027.77445041 211.3444382 1027.77578088 219.28333463 1027.77219868 227.22226048 C1027.76688575 239.02809089 1027.77299294 250.83389638 1027.78128161 262.63972409 C1027.79651698 284.95315667 1027.79822714 307.26657791 1027.79575858 329.58001461 C1027.79392542 346.81207218 1027.79568602 364.04412603 1027.79998302 381.27618313 C1027.80058543 383.7525341 1027.80118663 386.22888508 1027.80178663 388.70523605 C1027.80269389 392.43694148 1027.80360256 396.16864691 1027.80451898 399.90035234 C1027.81294791 434.59358478 1027.81728463 469.28681581 1027.81311226 503.98004913 C1027.81295588 505.28775995 1027.81279951 506.59547077 1027.81263839 507.94280918 C1027.81183262 514.57068899 1027.81098685 521.19856878 1027.81012509 527.82644858 C1027.809954 529.14274762 1027.80978291 530.45904666 1027.80960664 531.81523354 C1027.80925999 534.47710976 1027.80891146 537.13898597 1027.80856106 539.80086218 C1027.80320416 581.21729346 1027.81113363 622.63370249 1027.82959461 664.05012989 C1027.85031555 710.5910829 1027.86103713 757.13202272 1027.85701913 803.67298061 C1027.85662379 808.63655015 1027.85626224 813.60011969 1027.85592175 818.56368923 C1027.85578565 820.39689816 1027.85578565 820.39689816 1027.8556468 822.26714161 C1027.85448134 840.7080768 1027.86112523 859.14899867 1027.87173367 877.58993053 C1027.88378813 898.56581973 1027.88534178 919.54167958 1027.8729435 940.51756921 C1027.86631816 952.25136102 1027.8679385 963.98508267 1027.88153201 975.71886886 C1027.8897863 983.56404186 1027.88706622 991.40916238 1027.87555675 999.25433113 C1027.86931007 1003.71934339 1027.86767423 1008.1842189 1027.87942008 1012.64922317 C1027.93110798 1033.71743962 1027.51880155 1053.83225553 1021.36841297 1074.19197559 C1020.91945667 1075.69546558 1020.91945667 1075.69546558 1020.46143055 1077.22932911 C1011.99235646 1104.57382234 997.13067674 1127.68345145 977.49341297 1148.25447559 C976.6813036 1149.11943653 975.86919422 1149.98439747 975.03247547 1150.87556934 C947.62853263 1179.29940003 906.23079028 1198.45026371 866.82268808 1200.43979321 C862.87664687 1200.51023002 858.9332205 1200.52201799 854.98682594 1200.50895119 C853.46524805 1200.51134652 851.94367132 1200.51461521 850.42209694 1200.51866779 C846.26249293 1200.52723628 842.10297988 1200.52348291 837.94337461 1200.51761206 C833.40970059 1200.51342438 828.87604265 1200.52085353 824.3423726 1200.52676457 C816.40345037 1200.53551303 808.46455394 1200.5368435 800.52562809 1200.5332613 C788.71979768 1200.52794837 776.91399218 1200.53405556 765.10816448 1200.54234423 C742.79473189 1200.5575796 720.48131066 1200.55928976 698.16787396 1200.5568212 C680.93581639 1200.55498804 663.70376254 1200.55674865 646.47170544 1200.56104565 C643.99535446 1200.56164805 641.51900349 1200.56224925 639.04265251 1200.56284925 C635.31094708 1200.56375651 631.57924166 1200.56466518 627.84753623 1200.5655816 C593.15430379 1200.57401053 558.46107275 1200.57834726 523.76783943 1200.57417488 C522.46012862 1200.5740185 521.1524178 1200.57386213 519.80507938 1200.57370101 C513.17719958 1200.57289524 506.54931978 1200.57204947 499.92143998 1200.57118771 C497.94699143 1200.57093108 497.94699143 1200.57093108 495.93265502 1200.57066926 C493.27077881 1200.57032261 490.6089026 1200.56997408 487.94702639 1200.56962368 C446.5305951 1200.56426678 405.11418607 1200.57219625 363.69775867 1200.59065723 C317.15680566 1200.61137817 270.61586584 1200.62209975 224.07490796 1200.61808175 C219.11133842 1200.61768641 214.14776888 1200.61732486 209.18419933 1200.61698437 C207.96206005 1200.61689364 206.73992077 1200.6168029 205.48074696 1200.61670942 C187.03981176 1200.61554396 168.5988899 1200.62218786 150.15795803 1200.63279629 C129.18206884 1200.64485075 108.20620899 1200.64640441 87.23031936 1200.63400612 C75.49652754 1200.62738078 63.7628059 1200.62900112 52.02901971 1200.64259463 C44.18384671 1200.65084892 36.33872618 1200.64812884 28.49355744 1200.63661937 C24.02854517 1200.6303727 19.56366967 1200.62873686 15.09866539 1200.6404827 C-5.96955105 1200.6921706 -26.08436697 1200.27986418 -46.44408703 1194.12947559 C-47.94757702 1193.68051929 -47.94757702 1193.68051929 -49.48144054 1193.22249317 C-76.82593377 1184.75341908 -99.93556288 1169.89173936 -120.50658703 1150.25447559 C-121.37154797 1149.44236622 -122.2365089 1148.63025684 -123.12768078 1147.79353809 C-151.55151146 1120.38959525 -170.70237515 1078.99185291 -172.69190464 1039.5837507 C-172.76234146 1035.63770949 -172.77412942 1031.69428312 -172.76106262 1027.74788857 C-172.76345795 1026.22631067 -172.76672664 1024.70473395 -172.77077922 1023.18315956 C-172.77934771 1019.02355555 -172.77559435 1014.86404251 -172.7697235 1010.70443723 C-172.76553581 1006.17076322 -172.77296496 1001.63710527 -172.77887601 997.10343522 C-172.78762447 989.16451299 -172.78895493 981.22561656 -172.78537273 973.28669071 C-172.78005981 961.4808603 -172.786167 949.67505481 -172.79445567 937.8692271 C-172.80969104 915.55579451 -172.81140119 893.24237328 -172.80893264 870.92893658 C-172.80709948 853.69687901 -172.80886008 836.46482516 -172.81315708 819.23276806 C-172.81375948 816.75641708 -172.81436068 814.28006611 -172.81496068 811.80371514 C-172.81586795 808.07200971 -172.81677661 804.34030428 -172.81769304 800.60859885 C-172.82612196 765.91536641 -172.83045869 731.22213537 -172.82628632 696.52890205 C-172.82612994 695.22119124 -172.82597356 693.91348042 -172.82581245 692.56614201 C-172.82500668 685.9382622 -172.8241609 679.3103824 -172.82329915 672.68250261 C-172.82312806 671.36620357 -172.82295697 670.04990453 -172.8227807 668.69371764 C-172.82243404 666.03184143 -172.82208551 663.36996522 -172.82173511 660.70808901 C-172.81637822 619.29165772 -172.82430768 577.87524869 -172.84276867 536.4588213 C-172.86348961 489.91786829 -172.87421118 443.37692846 -172.87019318 396.83597058 C-172.86979784 391.87240104 -172.86943629 386.9088315 -172.8690958 381.94526196 C-172.86900507 380.72312267 -172.86891434 379.50098339 -172.86882086 378.24180958 C-172.8676554 359.80087439 -172.87429929 341.35995252 -172.88490772 322.91902065 C-172.89696218 301.94313146 -172.89851584 280.96727161 -172.88611756 259.99138198 C-172.87949222 248.25759017 -172.88111256 236.52386852 -172.89470607 224.79008233 C-172.90296035 216.94490933 -172.90024028 209.09978881 -172.8887308 201.25462006 C-172.88248413 196.7896078 -172.88084829 192.32473229 -172.89259414 187.85972802 C-172.94428203 166.79151157 -172.53197561 146.67669566 -166.38158703 126.31697559 C-166.08228283 125.31464893 -165.78297863 124.31232227 -165.47460461 123.27962208 C-157.00553052 95.93512885 -142.1438508 72.82549974 -122.50658703 52.25447559 C-121.69447765 51.38951466 -120.88236828 50.52455372 -120.04564953 49.63338184 C-89.28387127 17.72674776 -43.93818966 -0.14548255 0 0 Z " fill="#3080DD" transform="translate(172.50658702850342,-0.25447559356689453)"/>
<path d="M0 0 C1.54266792 -0.00503792 1.54266792 -0.00503792 3.11650085 -0.01017761 C6.50964574 -0.01966057 9.90274113 -0.02162949 13.29589844 -0.02270508 C15.66233338 -0.02591982 18.02876811 -0.02928406 20.39520264 -0.03279114 C25.3547817 -0.03877599 30.31434336 -0.04063173 35.27392578 -0.04003906 C41.61320674 -0.03993755 47.95237541 -0.05358137 54.29162979 -0.07081127 C59.17997749 -0.08195856 64.0682983 -0.08395742 68.95665741 -0.08342934 C71.2929091 -0.08460566 73.62916157 -0.08900782 75.9654007 -0.0967617 C79.24133545 -0.10661533 82.5170297 -0.10366218 85.79296875 -0.09765625 C86.74811874 -0.10327576 87.70326874 -0.10889526 88.68736267 -0.11468506 C106.10405955 -0.03399704 120.53026041 6.46031577 133.28027344 18.20776367 C144.54652348 29.89350175 149.76753282 44.6852425 149.78949451 60.74378014 C149.79184674 61.48022648 149.79419897 62.21667283 149.79662248 62.97543573 C149.80326963 65.43858473 149.80285557 67.90168046 149.80244446 70.36483765 C149.80574572 72.15050417 149.80947184 73.93616995 149.81358594 75.72183478 C149.82358355 80.6255264 149.82731909 85.52920578 149.82997525 90.43290615 C149.83388473 95.72271683 149.84346234 101.01251787 149.85218811 106.30232239 C149.87193009 119.07226472 149.88201399 131.84220781 149.8909159 144.61216158 C149.89530085 150.62603045 149.90066697 156.63989845 149.90590477 162.65376663 C149.92291166 182.64332331 149.93740737 202.63287945 149.94465351 222.62244225 C149.94656338 227.80713273 149.94848372 232.99182321 149.95043945 238.17651367 C149.95092319 239.46513056 149.95140693 240.75374746 149.95190533 242.08141334 C149.96021156 262.97149585 149.98556089 283.8615212 150.01802013 304.75157873 C150.05107296 326.1983503 150.0691005 347.6450928 150.07229775 369.09188998 C150.07446404 381.1339012 150.08323069 393.17582898 150.10875893 405.2178154 C150.13044128 415.46919249 150.13852831 425.72046584 150.12879214 435.97186325 C150.12424088 441.20234622 150.12618198 446.43261504 150.14555359 451.66306877 C150.16313804 456.45227739 150.16222588 461.24111486 150.1466563 466.03032716 C150.14427311 467.76176503 150.14864052 469.4932283 150.16048495 471.2246273 C150.26645482 487.73948529 150.26645482 487.73948529 145.65527344 495.14526367 C144.72714844 496.75401367 144.72714844 496.75401367 143.78027344 498.39526367 C138.15322109 505.67733142 130.30084658 510.4082985 121.10761642 511.60836983 C116.98689087 511.78613402 112.89313547 511.81092836 108.77001953 511.77636719 C107.19680477 511.7815156 105.6235958 511.7888038 104.05039978 511.79804993 C99.8086262 511.81645198 95.56748694 511.80369815 91.32574034 511.78395963 C86.87101313 511.76748438 82.4163233 511.77639803 77.96157837 511.78147888 C70.48535108 511.78598903 63.00937487 511.77019482 55.53320312 511.7421875 C46.90623128 511.71011699 38.27971149 511.71016394 29.65270746 511.72740227 C21.32913033 511.74329723 13.00571795 511.73651625 4.68214798 511.71946526 C1.15044356 511.71261689 -2.38112791 511.71360427 -5.91283035 511.72101021 C-10.074537 511.72870402 -14.23573256 511.71644681 -18.39735222 511.6891613 C-19.91904497 511.68230957 -21.44078574 511.68214482 -22.96247673 511.68937683 C-31.16762374 511.72386289 -38.14096865 511.45628832 -45.34472656 507.14526367 C-46.41722656 506.52651367 -47.48972656 505.90776367 -48.59472656 505.27026367 C-54.78749481 500.48494275 -57.45108709 495.23751727 -60.34472656 488.14526367 C-60.67472656 487.48526367 -61.00472656 486.82526367 -61.34472656 486.14526367 C-61.44411449 483.8195781 -61.47576822 481.49093495 -61.47894764 479.16312885 C-61.48247598 478.06727697 -61.48247598 478.06727697 -61.48607561 476.94928667 C-61.49278713 474.47596753 -61.49230674 472.00270067 -61.49189758 469.52937317 C-61.49519492 467.74817327 -61.4989202 465.96697412 -61.50303906 464.18577594 C-61.51308287 459.27096969 -61.5167797 454.35617565 -61.51942837 449.44136059 C-61.52332463 444.1479389 -61.53290372 438.85452695 -61.54164124 433.56111145 C-61.56142949 420.76383533 -61.57147687 407.96655839 -61.58036903 395.16927078 C-61.58474987 389.14371201 -61.59011737 383.11815413 -61.59535789 377.09259605 C-61.61237593 357.06122044 -61.62686858 337.02984537 -61.63410664 316.99846363 C-61.63601657 311.79682731 -61.63793689 306.59519099 -61.63989258 301.39355469 C-61.64037632 300.10069354 -61.64086006 298.80783238 -61.64135846 297.47579362 C-61.64965293 276.54741417 -61.67497745 255.61909199 -61.70747326 234.69073752 C-61.74056135 213.20567485 -61.75855716 191.72064125 -61.76175088 170.23555297 C-61.76391483 158.1720374 -61.77264629 146.10860524 -61.79821205 134.04511452 C-61.81994329 123.76707144 -61.82795768 113.489132 -61.81824527 103.21106855 C-61.81370703 97.96975068 -61.81555904 92.72864652 -61.83500671 87.48735809 C-61.85268589 82.68098309 -61.85160213 77.87497694 -61.83610942 73.06859776 C-61.8337405 71.33757661 -61.83801941 69.6065296 -61.84993807 67.87554786 C-61.97500026 48.49879992 -57.727428 31.54859603 -44.03222656 17.20776367 C-31.09523036 5.07375344 -17.52813468 -0.00824659 0 0 Z " fill="#FEFEFE" transform="translate(856.3447265625,508.854736328125)"/>
<path d="M0 0 C4.15626095 1.79131269 8.33784493 3.51538723 12.52441406 5.234375 C19.53852707 8.11865607 26.54465693 11.02133207 33.54394531 13.94140625 C42.42303367 17.64519428 51.30820254 21.33403644 60.19702148 25.0144043 C63.60584608 26.42597219 67.01351631 27.84027157 70.42016602 29.25708008 C78.00601843 32.41093387 85.59489206 35.55518339 93.20802307 38.64273071 C96.5099262 39.98314324 99.80805193 41.33270201 103.10580444 42.68328857 C104.64370243 43.31024747 106.18338319 43.93285511 107.7250061 44.55059814 C122.78949075 50.5894372 135.44431744 57.67252248 142.51660156 72.95703125 C149.92835266 91.92069129 142.74579895 108.36802014 135.45410156 125.890625 C134.74179889 127.61280916 134.03006075 129.33522691 133.31884766 131.05786133 C131.81819966 134.69208326 130.31562853 138.32550158 128.81201172 141.95849609 C125.43731508 150.12010808 122.09816763 158.29624183 118.75796509 166.47201538 C117.63927396 169.20881932 116.51897142 171.94495831 115.39819336 174.6809082 C111.85793406 183.32549835 108.32709172 191.97364486 104.82528687 200.63389587 C103.20047287 204.65064476 101.57085326 208.66543602 99.94085693 212.68008423 C99.16880074 214.58550479 98.39907809 216.49187284 97.63189697 218.39926147 C84.2852397 251.57685224 84.2852397 251.57685224 65.51660156 260.515625 C64.58460938 261.02802734 64.58460938 261.02802734 63.63378906 261.55078125 C54.81247664 265.80320764 41.16710484 264.58208282 32.06738281 261.61328125 C9.76558431 252.0163358 3.57016825 230.60486361 -4.85839844 209.765625 C-5.69780433 207.70034282 -6.5376446 205.63523713 -7.37792969 203.5703125 C-9.41809853 198.55410719 -11.45289353 193.53574939 -13.48339844 188.515625 C-19.59474546 189.09101482 -24.79050085 191.59225829 -30.35058594 194.01953125 C-31.43291 194.48560791 -32.51523407 194.95168457 -33.63035583 195.43188477 C-36.59041012 196.70786938 -39.54787609 197.98964185 -42.50436783 199.2738533 C-45.62957468 200.6295566 -48.75812335 201.97750006 -51.88647461 203.32592773 C-56.45693728 205.29660902 -61.02648763 207.26937699 -65.59489727 209.24481297 C-77.46245984 214.37599599 -89.34782047 219.4653478 -101.23400879 224.55322266 C-107.11341773 227.07029235 -112.9917448 229.58988571 -118.87011719 232.109375 C-119.97779449 232.58407227 -121.0854718 233.05876953 -122.22671509 233.54785156 C-128.44447246 236.21259636 -134.6615872 238.8788314 -140.87792969 241.546875 C-159.11348199 249.37227695 -177.36793804 257.15273574 -195.62664795 264.9239502 C-213.50591239 272.53459299 -231.3740671 280.17082637 -249.23339844 287.828125 C-251.00120163 288.58606354 -251.00120163 288.58606354 -252.80471802 289.35931396 C-262.58723069 293.55384857 -272.36899749 297.75012108 -282.15039062 301.94726562 C-287.30282038 304.15811071 -292.45546862 306.36844567 -297.60839844 308.578125 C-298.4362384 308.9331308 -299.26407837 309.2881366 -300.11700439 309.65390015 C-316.07494596 316.4956988 -332.05041929 323.29614569 -348.02655029 330.09533691 C-365.77261673 337.64861437 -383.50735425 345.22798052 -401.23339844 352.828125 C-402.41256836 353.33368927 -403.59173828 353.83925354 -404.80664062 354.36013794 C-414.58851243 358.55439788 -424.36963824 362.75039602 -434.15039062 366.94726562 C-444.35717096 371.3268226 -454.56541125 375.70294034 -464.77636719 380.07275391 C-468.9409642 381.85503679 -473.10487462 383.63891594 -477.26855469 385.42333984 C-483.34548166 388.02727574 -489.42416904 390.62706874 -495.50384521 393.22457886 C-497.87143949 394.23679085 -500.23852166 395.25020165 -502.6050415 396.2649231 C-509.88285646 399.38487056 -517.17188911 402.47542763 -524.48339844 405.515625 C-525.2992038 405.85688416 -526.11500916 406.19814331 -526.95553589 406.54974365 C-535.05804701 409.90596457 -542.41600426 412.52176242 -551.29589844 412.140625 C-552.18825195 412.1187915 -553.08060547 412.09695801 -554 412.07446289 C-567.6005888 411.51708206 -576.40993812 405.9478448 -585.73339844 396.328125 C-594.93900433 385.65256208 -596.18171429 373.24417826 -595.65380859 359.8046875 C-594.88646165 349.49717326 -588.63848945 340.51711926 -581.38574219 333.48046875 C-570.83191321 324.76541941 -557.06635123 320.09553674 -544.58499146 314.83312988 C-541.51570755 313.53904424 -538.44843067 312.24029844 -535.3815918 310.94042969 C-530.99314342 309.08070061 -526.60398979 307.22265064 -522.21435547 305.36572266 C-511.1506672 300.68341423 -500.09856771 295.97386874 -489.04589844 291.265625 C-487.36720673 290.55081467 -487.36720673 290.55081467 -485.65460205 289.82156372 C-467.07926542 281.91171533 -448.51954974 273.96578291 -429.96536255 266.00646973 C-411.69896646 258.17111176 -393.41825099 250.37000259 -375.12890625 242.58837891 C-357.90200108 235.25804757 -340.68870991 227.89648885 -323.48339844 220.515625 C-304.04456851 212.17660961 -284.59243016 203.8695842 -265.12890625 195.58837891 C-247.90200108 188.25804757 -230.68870991 180.89648885 -213.48339844 173.515625 C-194.05465773 165.18093776 -174.61304298 156.87720215 -155.15911865 148.60147095 C-142.26241739 143.11479652 -129.37112324 137.61581179 -116.49121094 132.08984375 C-115.86611382 131.82169483 -115.24101669 131.55354591 -114.59697723 131.27727127 C-107.98257582 128.43982465 -101.36904871 125.6003567 -94.75683594 122.7578125 C-83.84654728 118.07087409 -72.92482161 113.41171728 -61.97558594 108.81640625 C-60.9482132 108.38249069 -59.92084045 107.94857513 -58.86233521 107.50151062 C-57.92114838 107.10825089 -56.97996155 106.71499115 -56.01025391 106.30981445 C-55.18153778 105.96207474 -54.35282166 105.61433502 -53.49899292 105.25605774 C-51.48339844 104.515625 -51.48339844 104.515625 -49.48339844 104.515625 C-53.80534075 92.66189425 -58.57817372 81.06020151 -63.60522461 69.49023438 C-70.2209316 54.23576392 -76.40286767 39.48764555 -70.45605469 22.78125 C-64.91327328 9.87035354 -56.89648514 1.58728381 -44.22167969 -4.5859375 C-29.06061421 -10.24818534 -14.1366524 -6.14833619 0 0 Z " fill="#FEFEFE" transform="translate(839.4833984375,186.484375)"/>
<path d="M0 0 C1.0307515 -0.00671722 2.06150299 -0.01343445 3.12348938 -0.02035522 C6.50335624 -0.03922469 9.88302332 -0.04325399 13.26293945 -0.04541016 C15.63410012 -0.05184626 18.00526002 -0.05857521 20.37641907 -0.06558228 C25.33820434 -0.07752784 30.29992013 -0.08126595 35.26171875 -0.08007812 C41.58483745 -0.07987522 47.90750531 -0.1071612 54.23051739 -0.14162254 C59.12679546 -0.16398345 64.02296666 -0.16791283 68.91929054 -0.16685867 C71.24863041 -0.16920143 73.57797382 -0.17794915 75.9072628 -0.19352341 C97.72317826 -0.32572649 115.20705753 1.9543697 131.6809082 17.65380859 C145.23693191 31.90663726 148.50170676 47.49117513 148.45614624 66.59887695 C148.45988984 68.01946471 148.46449417 69.44005041 148.46987689 70.8606329 C148.48203391 74.73670867 148.48185513 78.61269767 148.47948813 82.48878813 C148.47907813 86.67972339 148.49013632 90.87063151 148.49960327 95.06155396 C148.51617232 103.26069492 148.52171089 111.45980713 148.52282803 119.65896344 C148.52378011 126.32480098 148.52789837 132.99062907 148.53422928 139.65646362 C148.55182773 158.57186626 148.56106992 177.48724626 148.55956833 196.40265715 C148.55948842 197.42107424 148.55940851 198.43949132 148.55932617 199.48876953 C148.55924441 200.50843508 148.55916265 201.52810063 148.55907841 202.57866514 C148.55826511 219.11194838 148.57741752 235.64514062 148.60560291 252.17839754 C148.63434173 269.17080185 148.64814276 286.16316178 148.64641535 303.15559101 C148.64575197 312.68920554 148.65122207 322.22272455 148.67277145 331.75631714 C148.69099601 339.87060902 148.69531983 347.98476204 148.68175261 356.09906554 C148.67523041 360.23619635 148.67507874 364.37306083 148.69245911 368.51016617 C148.70822735 372.30259892 148.70528845 376.09455498 148.68789084 379.88697636 C148.68338683 381.89745341 148.69844837 383.90794547 148.71437013 385.91836452 C148.64641958 394.88284133 147.14828982 402.35791216 142.5012207 410.10302734 C131.65048719 420.36723472 120.38077468 421.74423054 105.8918457 421.67871094 C104.36966578 421.68278353 102.84748882 421.68812925 101.32531738 421.69464111 C97.2178564 421.70823884 93.11062319 421.7030475 89.00315857 421.69350386 C84.68903016 421.68586792 80.37492026 421.69296374 76.06079102 421.69766235 C68.81824266 421.7031085 61.57578631 421.69595833 54.33325195 421.68164062 C45.97961172 421.6653163 37.62619122 421.67060562 29.2725563 421.68711984 C22.07903295 421.70076731 14.88557544 421.70263847 7.6920433 421.69480383 C3.40496981 421.6901452 -0.88200066 421.68945235 -5.16906738 421.6994133 C-9.20098573 421.70812833 -13.23262289 421.70197898 -17.26451111 421.68473053 C-18.73741694 421.68078977 -20.21034675 421.68185802 -21.6832428 421.68851852 C-34.23045423 421.73999321 -43.87640102 420.56494102 -53.4362793 411.91552734 C-59.14127379 405.61000712 -62.05864195 399.73532667 -62.06575489 391.18214989 C-62.07450318 389.36744873 -62.07450318 389.36744873 -62.0834282 387.51608694 C-62.07979538 386.18214134 -62.07597102 384.84819626 -62.07197571 383.51425171 C-62.07499729 382.09044273 -62.0788868 380.66663537 -62.08356827 379.24283087 C-62.09385675 375.33458179 -62.09166426 371.42642436 -62.08738768 367.51816773 C-62.0849219 363.30122528 -62.09393294 359.08430497 -62.10142517 354.86737061 C-62.11417973 346.60637798 -62.1159648 338.34541785 -62.11362491 330.08441703 C-62.11184192 323.36745827 -62.113591 316.65050937 -62.11784935 309.93355179 C-62.11844454 308.97755441 -62.11903973 308.02155704 -62.11965295 307.03659005 C-62.12086471 305.09442602 -62.12207885 303.152262 -62.12329533 301.21009798 C-62.13417443 282.99143551 -62.13200702 264.77279153 -62.12591048 246.55412801 C-62.12074478 229.89835419 -62.13198695 213.24263892 -62.1510087 196.58687668 C-62.17039753 179.4782355 -62.17864103 162.36962199 -62.17488545 145.26096976 C-62.17297451 135.65852217 -62.17545028 126.05612437 -62.18959999 116.45368576 C-62.20152829 108.27600306 -62.20290267 100.09840076 -62.19080982 91.92071693 C-62.18493042 87.75113769 -62.1837955 83.58170543 -62.19581223 79.41213608 C-62.20670293 75.58867995 -62.20353008 71.76549293 -62.18955054 67.94204922 C-62.18567061 65.91717007 -62.19642485 63.89227883 -62.20784742 61.86742818 C-62.10221263 43.90460434 -56.19900917 29.36186103 -43.8112793 16.29052734 C-31.4896282 4.49958407 -16.68271196 -0.01591052 0 0 Z " fill="#FEFEFE" transform="translate(556.811279296875,598.70947265625)"/>
<path d="M0 0 C2.34109171 -0.00711451 4.68218169 -0.01481536 7.02326965 -0.02307129 C11.91766206 -0.03647267 16.81189328 -0.03810497 21.70629883 -0.03222656 C27.93512409 -0.02634246 34.16316672 -0.05689031 40.39184093 -0.09734344 C45.22473719 -0.12337375 50.05744898 -0.12608386 54.89040565 -0.12245178 C57.18460362 -0.12412949 59.47881138 -0.13363966 61.77293968 -0.15159607 C83.60647678 -0.30367322 101.23622275 2.62385426 117.69921875 18.0546875 C134.20399956 35.22632814 135.47051452 55.12618781 135.40771484 77.60571289 C135.41178441 80.05266046 135.41712844 82.49960619 135.42364502 84.94654846 C135.43586511 90.88027565 135.43413114 96.81389814 135.4254071 102.74762232 C135.41860831 107.57324265 135.41772327 112.39883112 135.42097855 117.22445488 C135.42143825 117.91349336 135.42189794 118.60253184 135.42237157 119.31245027 C135.42333083 120.71257883 135.42430347 122.11270737 135.42528935 123.51283591 C135.43382586 136.61445136 135.42403616 149.71600363 135.40788825 162.81760871 C135.39448365 174.04062815 135.39681769 185.26355449 135.41064453 196.48657227 C135.426726 209.54559101 135.43300519 222.60455453 135.42380774 235.66358179 C135.42285217 237.05800815 135.42190906 238.45243451 135.42097855 239.84686089 C135.42051572 240.53280077 135.42005289 241.21874065 135.41957604 241.92546659 C135.41699406 246.74149857 135.42133992 251.55749529 135.42841721 256.3735218 C135.43774575 262.86363945 135.43103393 269.35362308 135.41373444 275.8437252 C135.40977879 278.22085911 135.41088777 280.59800786 135.41752243 282.9751358 C135.42576425 286.2288652 135.41538421 289.4820387 135.40048218 292.73573303 C135.40717434 293.66824341 135.41386651 294.60075379 135.42076147 295.56152207 C135.33544032 305.21724852 133.42077088 313.97996434 127.125 321.45703125 C120.80652312 327.49416593 114.11805945 330.58777216 105.4418335 330.60919189 C104.77042304 330.61216302 104.09901259 330.61513414 103.40725636 330.6181953 C101.15267658 330.62688155 98.89814989 330.62839048 96.64355469 330.62988281 C95.02887356 330.63451108 93.41419353 330.63953576 91.79951477 330.64492798 C87.40886699 330.65805417 83.01823449 330.66449751 78.62757015 330.66893864 C75.88419069 330.67186935 73.14081541 330.67597419 70.39743805 330.68044281 C61.81334539 330.69411908 53.22926228 330.70378478 44.64515948 330.7076447 C34.73761065 330.7121242 24.83019987 330.72966651 14.92269301 330.7586453 C7.26398491 330.7802684 -0.39468438 330.79034934 -8.05342269 330.79168582 C-12.62724471 330.79273351 -17.20093699 330.79863353 -21.77472687 330.81650543 C-26.07900582 330.83299671 -30.38305765 330.83513651 -34.68735695 330.82636642 C-36.26473156 330.82559658 -37.84211843 330.82993183 -39.4194622 330.83982468 C-41.57818911 330.85256672 -43.73611433 330.84665589 -45.89483643 330.83624268 C-47.10125416 330.83770924 -48.30767189 330.8391758 -49.55064774 330.8406868 C-57.96158774 329.92858728 -65.50768902 324.85115147 -70.79296875 318.34375 C-78.06058453 306.56339602 -76.40584593 291.68928691 -76.36865234 278.43945312 C-76.37272197 276.00398016 -76.37806604 273.56850903 -76.38458252 271.13304138 C-76.39680255 265.2270525 -76.39506852 259.32116881 -76.3863446 253.41518295 C-76.37954515 248.61150099 -76.37866105 243.80785105 -76.38191605 239.00416565 C-76.38237575 238.31819125 -76.38283544 237.63221686 -76.38330907 236.92545536 C-76.38426833 235.53152954 -76.38524098 234.13760372 -76.38622685 232.74367791 C-76.39476352 219.69973612 -76.38497375 206.65585777 -76.36882575 193.61192638 C-76.35542413 182.44095954 -76.35775271 171.27008625 -76.37158203 160.09912109 C-76.3876684 147.09905634 -76.3939397 134.09904707 -76.38474524 121.09897375 C-76.38378968 119.71042729 -76.38284657 118.32188083 -76.38191605 116.93333435 C-76.38145322 116.25029929 -76.38099039 115.56726423 -76.38051354 114.86353114 C-76.3779328 110.07051122 -76.38227478 105.27752676 -76.38935471 100.48451233 C-76.39869005 94.02311853 -76.39196039 87.56185927 -76.37467194 81.10048103 C-76.37071936 78.73505507 -76.37181996 76.3696142 -76.37845993 74.00419426 C-76.4156467 59.40625879 -76.18815157 46.58121716 -69.35546875 33.34375 C-69.01064453 32.66779785 -68.66582031 31.9918457 -68.31054688 31.29541016 C-60.87033828 17.3066158 -48.58694341 8.07151029 -33.85520935 2.6927948 C-22.82792616 -0.62898376 -11.40610849 -0.00422961 0 0 Z " fill="#FEFEFE" transform="translate(269.98046875,688.53125)"/>
</svg>
